<?xml version="1.0" encoding="utf-8"?>
<svg viewBox="0 0 500 500" xmlns="http://www.w3.org/2000/svg">
  <path fill="#FF8C38" opacity="1.000000" stroke="none" d="M 201.518 -1.438 C 233.384 -1.438 265.253 -1.438 297.441 -0.659 C 298.991 1.2 300.125 3.093 301.455 3.242 C 330.518 6.458 355.944 19.447 380.815 33.387 C 408.223 48.746 430.884 69.752 450.337 94.457 C 474.157 124.711 490.115 158.471 498.14 196.096 C 498.439 197.508 501.272 198.376 502.924 199.499 C 502.924 232.205 502.924 264.909 502.153 297.936 C 500.252 299.895 498.426 301.405 498.1 303.191 C 489.705 349.095 468.132 388.612 436.728 422.18 C 401.024 460.352 357.529 486.227 305.426 496.133 C 304.027 496.396 303.123 499.256 301.987 500.905 C 269.282 500.905 236.577 500.905 203.551 500.154 C 202.026 498.304 200.95 496.452 199.594 496.219 C 172.817 491.572 148.162 481.234 124.866 467.708 C 97.315 451.711 72.964 431.68 53.531 406.261 C 30.031 375.521 12.893 341.69 5.364 303.377 C 5.088 301.983 2.234 301.093 0.581 299.968 C 0.581 267.263 0.581 234.558 1.332 201.534 C 3.251 199.175 5.017 197.269 5.496 195.082 C 18.441 136.084 48.926 87.892 95.933 50.398 C 125.3 26.975 159.196 12.396 195.603 3.457 C 197.841 2.907 199.559 0.242 201.518 -1.438 M 427.711 300.167 C 427.664 291.468 427.817 282.763 427.528 274.072 C 426.986 257.618 426.189 241.171 425.046 222.803 C 419.958 210.112 414.352 197.598 409.89 184.69 C 401.637 160.809 386.416 148.103 360.176 151.418 C 359.505 151.501 358.73 150.737 354.638 148.662 C 358.892 145.523 361.53 142.659 364.78 141.448 C 367.749 140.341 371.793 141.928 374.613 140.662 C 377.555 139.344 379.599 136.03 382.036 133.589 C 379.562 131.633 377.285 129.287 374.535 127.865 C 372.851 126.996 370.384 127.804 368.355 127.413 C 356.623 125.135 345.736 124.502 333.027 126.205 C 303.846 130.113 273.778 127.662 244.082 127.212 C 239.629 127.144 235.05 124.291 230.83 122.138 C 218.739 115.972 206.924 109.253 194.757 103.246 C 188.093 99.955 184.454 103.17 183.966 110.213 C 183.765 113.129 184.344 116.158 183.781 118.979 C 182.533 125.228 181.083 131.18 173.035 123.789 C 170.974 121.895 166.51 121.395 163.509 122.008 C 157.947 123.143 152.684 125.673 147.238 127.435 C 142.752 128.89 138.178 130.078 133.644 131.384 C 133.419 132.788 133.192 134.189 132.966 135.594 C 136.568 137.465 140.061 139.62 143.824 141.087 C 145.64 141.795 148.184 140.635 150.006 141.338 C 153.763 142.795 157.257 144.935 160.861 146.793 C 157.107 148.446 153.467 150.521 149.556 151.604 C 146.836 152.357 143.739 151.749 140.81 151.751 C 112.453 151.755 108.037 155.567 100.613 182.819 C 99.163 188.138 94.841 194.659 90.134 196.712 C 78.725 201.687 73.245 210.632 68.815 221.035 C 57.172 248.377 64.813 274.994 89.067 292.215 C 94.178 295.844 95.683 298.659 88.689 303.133 C 84.108 306.062 79.969 312.147 78.844 317.495 C 76.533 328.473 88.258 339.771 101.112 340.12 C 112.375 340.427 123.653 340.185 134.978 340.185 C 136.136 343.017 136.955 345.335 138.004 347.545 C 146.027 364.426 163.31 371.818 179.408 362.603 C 187.631 357.896 192.838 347.912 201.709 340.231 C 235.683 340.204 269.659 339.954 303.628 340.384 C 308.899 340.452 314.132 343.627 320.18 346.945 C 324.907 359.192 335.147 365.931 346.924 366.278 C 363.986 366.783 376.743 358.172 380.853 341.394 C 393.25 340.096 404.701 338.438 416.208 337.832 C 425.516 337.342 434.407 336.014 437.168 325.902 C 439.732 316.51 437.511 307.731 427.711 300.167 Z" style=""/>
  <path fill="#FCFBFA" opacity="1.000000" stroke="none" d="M 199.406 340.314 C 192.838 347.912 187.631 357.896 179.408 362.603 C 163.31 371.818 146.027 364.426 138.004 347.545 C 136.955 345.335 136.136 343.017 134.978 340.185 C 123.653 340.185 112.375 340.427 101.112 340.12 C 88.258 339.771 76.533 328.473 78.844 317.495 C 79.969 312.147 84.108 306.062 88.689 303.133 C 95.683 298.659 94.178 295.844 89.067 292.215 C 64.813 274.994 57.172 248.377 68.815 221.035 C 73.245 210.632 78.725 201.687 90.134 196.712 C 94.841 194.659 99.163 188.138 100.613 182.819 C 108.037 155.567 112.453 151.755 140.81 151.751 C 143.739 151.749 146.836 152.357 149.556 151.604 C 153.467 150.521 157.107 148.446 160.861 146.793 C 157.257 144.935 153.763 142.795 150.006 141.338 C 148.184 140.635 145.64 141.795 143.824 141.087 C 140.061 139.62 136.568 137.465 132.966 135.594 C 133.192 134.189 133.419 132.788 133.644 131.384 C 138.178 130.078 142.752 128.89 147.238 127.435 C 152.684 125.673 157.947 123.143 163.509 122.008 C 166.51 121.395 170.974 121.895 173.035 123.789 C 181.083 131.18 182.533 125.228 183.781 118.979 C 184.344 116.158 183.765 113.129 183.966 110.213 C 184.454 103.17 188.093 99.955 194.757 103.246 C 206.924 109.253 218.739 115.972 230.83 122.138 C 235.05 124.291 239.629 127.144 244.082 127.212 C 273.778 127.662 303.846 130.113 333.027 126.205 C 345.736 124.502 356.623 125.135 368.355 127.413 C 370.384 127.804 372.851 126.996 374.535 127.865 C 377.285 129.287 379.562 131.633 382.036 133.589 C 379.599 136.03 377.555 139.344 374.613 140.662 C 371.793 141.928 367.749 140.341 364.78 141.448 C 361.53 142.659 358.892 145.523 354.638 148.662 C 358.73 150.737 359.505 151.501 360.176 151.418 C 386.416 148.103 401.637 160.809 409.89 184.69 C 414.352 197.598 419.958 210.112 425.108 224.924 C 425.147 248.53 424.989 270.021 425.222 291.507 C 425.263 295.191 426.965 298.858 427.899 302.535 C 437.511 307.731 439.732 316.51 437.168 325.902 C 434.407 336.014 425.516 337.342 416.208 337.832 C 404.701 338.438 393.25 340.096 380.853 341.394 C 376.743 358.172 363.986 366.783 346.924 366.278 C 335.147 365.931 324.907 359.192 319.8 345.081 C 315.984 341.368 312.564 337.953 309.103 337.91 C 275.393 337.508 241.676 337.604 207.961 337.782 C 205.105 337.797 202.26 339.432 199.406 340.314 M 106.186 234.611 C 106.161 250.842 105.91 267.077 106.219 283.3 C 106.34 289.562 107.726 295.799 110.551 302.374 C 126.423 300.927 130.814 311.612 132.569 326.284 C 135.058 323.452 136.201 322.426 137.015 321.185 C 153.949 295.419 178.006 294.827 196.184 319.218 C 198.527 322.362 204.254 324.465 208.446 324.518 C 241.879 324.942 275.323 324.55 308.757 324.917 C 315.917 324.997 319.895 322.666 323.525 316.497 C 329.162 306.918 338.159 302.464 349.649 302.334 C 365.687 302.153 374.789 311.798 380.387 322.161 C 386.979 315.305 393.26 308.767 401.755 302.492 C 409.754 303.615 412.897 300.415 412.59 292.124 C 412.068 278.064 412.694 263.962 412.334 249.892 C 412.184 244.057 410.737 238.255 407.547 232.227 C 392.073 232.207 376.588 231.825 361.13 232.328 C 353.605 232.572 350.23 229.906 350.245 222.524 C 350.27 210.815 350.264 199.105 350.189 187.395 C 350.139 179.325 354.175 176.372 362.017 176.781 C 370.235 177.207 378.492 176.876 387.875 176.876 C 385.522 166.98 379.489 164.983 372.197 164.981 C 292.734 164.951 213.271 164.793 133.812 165.33 C 128.199 165.367 122.618 170.623 117.152 175.716 C 120.006 176.098 122.859 176.814 125.715 176.814 C 192.866 176.834 260.014 176.776 328.45 178.172 C 328.222 195.378 327.994 212.581 325.289 229.655 C 257.088 229.673 188.885 229.638 120.684 229.816 C 115.962 229.828 111.242 231.426 106.186 234.611 M 86.563 215.688 C 74.147 234.845 74.875 258.294 89.619 276.827 C 90.707 276.438 92.739 276.064 92.746 275.655 C 93.123 255.312 93.328 234.968 93.55 214.623 C 91.688 214.635 89.825 214.645 86.563 215.688 M 176.223 194.343 C 176.223 201.655 176.223 208.968 176.223 216.318 C 201.008 216.318 224.089 216.318 248.608 216.318 C 248.179 207.708 247.792 199.954 246.137 190.292 C 226.684 190.025 207.231 189.616 187.776 189.614 C 184.067 189.614 180.355 191.218 176.223 194.343 M 222.868 141.202 C 209.099 141.21 195.327 141.303 181.557 141.198 C 173.601 141.135 172.422 144.688 175.695 151.755 C 227.962 151.755 280.083 151.85 332.198 151.55 C 335.812 151.528 339.411 148.574 343.018 146.985 C 339.273 145.058 335.549 141.504 331.781 141.459 C 296.318 141.032 260.848 141.202 222.868 141.202 M 314.98 192.412 C 297.602 192.412 280.223 192.412 262.764 192.412 C 262.764 201.152 262.764 208.78 262.764 216.127 C 281.419 216.127 299.121 216.127 316.781 216.127 C 316.781 208.07 316.781 201.009 314.98 192.412 M 152.166 191.995 C 138.909 191.995 125.652 191.995 112.023 191.995 C 110.044 200.469 108.224 208.258 106.402 216.061 C 125.499 216.061 143.528 216.061 162.32 216.061 C 162.32 210.034 163.263 204.809 161.994 200.193 C 161.122 197.025 157.176 194.704 152.166 191.995 M 342.32 317.633 C 331.183 321.617 329.825 330.679 332.462 340.008 C 334.949 348.806 342.159 353.473 351.619 352.609 C 361.078 351.744 366.589 345.777 368.495 336.777 C 371.193 324.026 362.906 317.53 342.32 317.633 M 179.671 347.401 C 180.799 345.707 181.864 343.963 183.068 342.324 C 189.62 333.394 185.768 325.088 178.164 321.365 C 171.813 318.258 161.992 317.665 155.599 320.396 C 147.853 323.704 146.789 332.965 150.209 341.156 C 154.906 352.411 165.016 354.764 179.671 347.401 M 378.502 191.995 C 374.034 191.995 369.568 191.995 365.001 191.995 C 365.001 201.152 365.001 208.75 365.001 216.311 C 380.436 216.311 394.743 216.311 409.31 216.311 C 400.997 192.183 400.781 192.004 378.502 191.995 M 96.182 317.522 C 95.13 319.18 92.849 321.919 93.213 322.332 C 97.674 327.417 112.566 325.263 118.87 317.495 C 111.218 317.495 104.775 317.495 96.182 317.522 M 420.033 324.656 C 421.816 323.041 423.599 321.425 426.327 318.957 C 416.283 318.957 408.303 318.957 400.323 318.957 C 400.215 320.389 400.107 321.82 399.999 323.255 C 405.955 323.771 411.91 324.289 420.033 324.656 Z" style=""/>
  <path fill="#E58239" opacity="1.000000" stroke="none" d="M 200.559 340.271 C 202.26 339.432 205.105 337.797 207.961 337.782 C 241.676 337.604 275.393 337.508 309.103 337.91 C 312.564 337.953 315.984 341.368 319.403 344.293 C 314.132 343.627 308.899 340.452 303.628 340.384 C 269.659 339.954 235.683 340.204 200.559 340.271 Z" style=""/>
  <path fill="#E78136" opacity="1.000000" stroke="none" d="M 427.806 301.35 C 426.965 298.858 425.263 295.191 425.222 291.507 C 424.989 270.021 425.147 248.53 425.335 225.882 C 426.189 241.171 426.986 257.618 427.528 274.072 C 427.817 282.763 427.664 291.468 427.806 301.35 Z" style=""/>
  <path fill="#FD8C3A" opacity="1.000000" stroke="none" d="M 117.022 173.451 C 122.618 170.623 128.199 165.367 133.812 165.33 C 213.271 164.793 292.734 164.951 372.197 164.981 C 379.489 164.983 385.522 166.98 387.875 176.876 C 378.492 176.876 370.235 177.207 362.017 176.781 C 354.175 176.372 350.139 179.325 350.189 187.395 C 350.264 199.105 350.27 210.815 350.245 222.524 C 350.23 229.906 353.605 232.572 361.13 232.328 C 376.588 231.825 392.073 232.207 408.748 233.491 C 409.963 252.191 409.456 269.652 410.218 287.056 C 410.594 295.703 407.401 300.189 399.544 302.229 C 393.26 308.767 386.979 315.305 380.387 322.161 C 374.789 311.798 365.687 302.153 349.649 302.334 C 338.159 302.464 329.162 306.918 323.525 316.497 C 319.895 322.666 315.917 324.997 308.757 324.917 C 275.323 324.55 241.879 324.942 208.446 324.518 C 204.254 324.465 198.527 322.362 196.184 319.218 C 178.006 294.827 153.949 295.419 137.015 321.185 C 136.201 322.426 135.058 323.452 132.569 326.284 C 130.814 311.612 126.423 300.927 109.554 301.061 C 108.552 277.358 108.548 254.969 109.718 232.445 C 177.931 232.255 244.974 232.248 312.016 232.034 C 317.268 232.019 322.516 230.569 327.767 229.785 C 327.994 212.581 328.222 195.378 326.915 176.907 C 320.435 175.223 315.496 174.461 310.549 174.45 C 264.334 174.36 218.119 174.483 171.902 174.352 C 153.608 174.302 135.314 173.767 117.022 173.451 Z" style=""/>
  <path fill="#FD8D3B" opacity="1.000000" stroke="none" d="M 247.408 192.2 C 247.792 199.954 248.179 207.708 248.608 216.318 C 224.089 216.318 201.008 216.318 176.223 216.318 C 176.223 208.968 176.223 201.655 177.594 193.172 C 201.779 192.067 224.594 192.135 247.408 192.2 Z" style=""/>
  <path fill="#FD8C39" opacity="1.000000" stroke="none" d="M 224.124 141.202 C 260.848 141.202 296.318 141.032 331.781 141.459 C 335.549 141.504 339.273 145.058 343.018 146.985 C 339.411 148.574 335.812 151.528 332.198 151.55 C 280.083 151.85 227.962 151.755 175.695 151.755 C 172.422 144.688 173.601 141.135 181.557 141.198 C 195.327 141.303 209.099 141.21 224.124 141.202 Z" style=""/>
  <path fill="#FF8C38" opacity="1.000000" stroke="none" d="M 315.882 193.182 C 316.781 201.009 316.781 208.07 316.781 216.127 C 299.121 216.127 281.419 216.127 262.764 216.127 C 262.764 208.78 262.764 201.152 262.764 192.412 C 280.223 192.412 297.602 192.412 315.882 193.182 Z" style=""/>
  <path fill="#FD8C39" opacity="1.000000" stroke="none" d="M 153.384 191.999 C 157.176 194.704 161.122 197.025 161.994 200.193 C 163.263 204.809 162.32 210.034 162.32 216.061 C 143.528 216.061 125.499 216.061 106.402 216.061 C 108.224 208.258 110.044 200.469 112.023 191.995 C 125.652 191.995 138.909 191.995 153.384 191.999 Z" style=""/>
  <path fill="#F48C40" opacity="1.000000" stroke="none" d="M 343.383 317.6 C 362.906 317.53 371.193 324.026 368.495 336.777 C 366.589 345.777 361.078 351.744 351.619 352.609 C 342.159 353.473 334.949 348.806 332.462 340.008 C 329.825 330.679 331.183 321.617 343.383 317.6 Z" style=""/>
  <path fill="#FA8C3B" opacity="1.000000" stroke="none" d="M 178.732 347.663 C 165.016 354.764 154.906 352.411 150.209 341.156 C 146.789 332.965 147.853 323.704 155.599 320.396 C 161.992 317.665 171.813 318.258 178.164 321.365 C 185.768 325.088 189.62 333.394 183.068 342.324 C 181.864 343.963 180.799 345.707 178.732 347.663 Z" style=""/>
  <path fill="#FD8C39" opacity="1.000000" stroke="none" d="M 379.667 191.995 C 400.781 192.004 400.997 192.183 409.31 216.311 C 394.743 216.311 380.436 216.311 365.001 216.311 C 365.001 208.75 365.001 201.152 365.001 191.995 C 369.568 191.995 374.034 191.995 379.667 191.995 Z" style=""/>
  <path fill="#F98B3C" opacity="1.000000" stroke="none" d="M 88.413 275.353 C 74.875 258.294 74.147 234.845 88.044 215.884 C 89.154 235.839 88.782 255.596 88.413 275.353 Z" style=""/>
  <path fill="#CCAB94" opacity="1.000000" stroke="none" d="M 326.529 229.72 C 322.516 230.569 317.268 232.019 312.016 232.034 C 244.974 232.248 177.931 232.255 109.215 232.348 C 107.54 232.382 106.523 232.287 106.523 232.287 C 111.242 231.426 115.962 229.828 120.684 229.816 C 188.885 229.638 257.088 229.673 326.529 229.72 Z" style=""/>
  <path fill="#CA7A3F" opacity="1.000000" stroke="none" d="M 117.087 174.584 C 135.314 173.767 153.608 174.302 171.902 174.352 C 218.119 174.483 264.334 174.36 310.549 174.45 C 315.496 174.461 320.435 175.223 326.273 176.186 C 260.014 176.776 192.866 176.834 125.715 176.814 C 122.859 176.814 120.006 176.098 117.087 174.584 Z" style=""/>
  <path fill="#C28E68" opacity="1.000000" stroke="none" d="M 400.65 302.362 C 407.401 300.189 410.594 295.703 410.218 287.056 C 409.456 269.652 409.963 252.191 409.913 233.599 C 410.737 238.255 412.184 244.057 412.334 249.892 C 412.694 263.962 412.068 278.064 412.59 292.124 C 412.897 300.415 409.754 303.615 400.65 302.362 Z" style=""/>
  <path fill="#E68F4F" opacity="1.000000" stroke="none" d="M 97.257 317.507 C 104.775 317.495 111.218 317.495 118.87 317.495 C 112.566 325.263 97.674 327.417 93.213 322.332 C 92.849 321.919 95.13 319.18 97.257 317.507 Z" style=""/>
  <path fill="#C28E68" opacity="1.000000" stroke="none" d="M 89.016 276.091 C 88.782 255.596 89.154 235.839 88.743 215.371 C 89.825 214.645 91.688 214.635 93.55 214.623 C 93.328 234.968 93.123 255.312 92.746 275.655 C 92.739 276.064 90.707 276.438 89.016 276.091 Z" style=""/>
  <path fill="#E78136" opacity="1.000000" stroke="none" d="M 106.355 233.45 C 106.523 232.287 107.54 232.382 108.043 232.481 C 108.548 254.969 108.552 277.358 108.548 300.897 C 107.726 295.799 106.34 289.562 106.219 283.3 C 105.91 267.077 106.161 250.842 106.355 233.45 Z" style=""/>
  <path fill="#C37D4A" opacity="1.000000" stroke="none" d="M 246.772 191.246 C 224.594 192.135 201.779 192.067 177.805 192.042 C 180.355 191.218 184.067 189.614 187.776 189.614 C 207.231 189.616 226.684 190.025 246.772 191.246 Z" style=""/>
  <path fill="#EB8C46" opacity="1.000000" stroke="none" d="M 418.948 324.731 C 411.91 324.289 405.955 323.771 399.999 323.255 C 400.107 321.82 400.215 320.389 400.323 318.957 C 408.303 318.957 416.283 318.957 426.327 318.957 C 423.599 321.425 421.816 323.041 418.948 324.731 Z" style=""/>
</svg>